HIERARCHY
ROOT joint_Root
{
	OFFSET 0.0 0.0 0.0
	CHANNELS 6 Xposition Yposition Zposition Zrotation Xrotation Yrotation 
	JOINT Hips
	{
		OFFSET 4.5925 91.4895 -427.239
		CHANNELS 6 Xposition Yposition Zposition Zrotation Xrotation Yrotation 
		JOINT Spine
		{
			OFFSET 15.7357 0.0 0.0
			CHANNELS 6 Xposition Yposition Zposition Zrotation Xrotation Yrotation 
			JOINT Chest
			{
				OFFSET 8.98455 -0.406207 0.0
				CHANNELS 6 Xposition Yposition Zposition Zrotation Xrotation Yrotation 
				JOINT Neck
				{
					OFFSET 16.3773 0.0 0.0
					CHANNELS 6 Xposition Yposition Zposition Zrotation Xrotation Yrotation 
					JOINT Head
					{
						OFFSET 6.45672 0.0 0.0
						CHANNELS 6 Xposition Yposition Zposition Zrotation Xrotation Yrotation 
						End Site
						{
							OFFSET 0.0 0.0 0.0
						}
					}
				}
				JOINT Shoulder_L
				{
					OFFSET 12.9942 -0.242716 4.98039
					CHANNELS 6 Xposition Yposition Zposition Zrotation Xrotation Yrotation 
					JOINT UpperArm_L
					{
						OFFSET 5.34809 0.0 0.0
						CHANNELS 6 Xposition Yposition Zposition Zrotation Xrotation Yrotation 
						JOINT LowerArm_L
						{
							OFFSET 24.3286 1.87007e-05 0.0
							CHANNELS 6 Xposition Yposition Zposition Zrotation Xrotation Yrotation 
							JOINT Hand_L
							{
								OFFSET 22.2916 0.0 0.0
								CHANNELS 6 Xposition Yposition Zposition Zrotation Xrotation Yrotation 
								End Site
								{
									OFFSET 0.0 0.0 0.0
								}
							}
						}
					}
				}
				JOINT Shoulder_R
				{
					OFFSET 12.9945 -0.242716 -4.98039
					CHANNELS 6 Xposition Yposition Zposition Zrotation Xrotation Yrotation 
					JOINT UpperArm_R
					{
						OFFSET -5.34813 0.0 0.0
						CHANNELS 6 Xposition Yposition Zposition Zrotation Xrotation Yrotation 
						JOINT LowerArm_R
						{
							OFFSET -24.3289 0.000322201 0.0
							CHANNELS 6 Xposition Yposition Zposition Zrotation Xrotation Yrotation 
							JOINT Hand_R
							{
								OFFSET -22.2915 -0.000108084 0.0
								CHANNELS 6 Xposition Yposition Zposition Zrotation Xrotation Yrotation 
								End Site
								{
									OFFSET 0.0 0.0 0.0
								}
							}
						}
					}
				}
			}
		}
		JOINT UpperLeg_L
		{
			OFFSET -2.19248 -6.46944 0.0
			CHANNELS 6 Xposition Yposition Zposition Zrotation Xrotation Yrotation 
			JOINT LowerLeg_L
			{
				OFFSET 39.0811 0.0 -1.23785e-05
				CHANNELS 6 Xposition Yposition Zposition Zrotation Xrotation Yrotation 
				JOINT Foot_L
				{
					OFFSET 40.9854 0.0 -1.26872e-05
					CHANNELS 6 Xposition Yposition Zposition Zrotation Xrotation Yrotation 
					JOINT Toes_L
					{
						OFFSET 11.7543 0.0 0.0
						CHANNELS 6 Xposition Yposition Zposition Zrotation Xrotation Yrotation 
						End Site
						{
							OFFSET 0.0 0.0 0.0
						}
					}
				}
			}
		}
		JOINT UpperLeg_R
		{
			OFFSET -2.19251 6.46944 0.0
			CHANNELS 6 Xposition Yposition Zposition Zrotation Xrotation Yrotation 
			JOINT LowerLeg_R
			{
				OFFSET -39.0811 -0.00228153 -0.0401928
				CHANNELS 6 Xposition Yposition Zposition Zrotation Xrotation Yrotation 
				JOINT Foot_R
				{
					OFFSET -40.9854 0.0 0.0
					CHANNELS 6 Xposition Yposition Zposition Zrotation Xrotation Yrotation 
					JOINT Toes_R
					{
						OFFSET -11.7543 0.0 0.0
						CHANNELS 6 Xposition Yposition Zposition Zrotation Xrotation Yrotation 
						End Site
						{
							OFFSET 0.0 0.0 0.0
						}
					}
				}
			}
		}
	}
}
MOTION
Frames:	4
Frame Time:	0.0333333
0.000000 0.000000 0.000000 0.000000 0.000000 -0.000000 -1.090450 80.725100 -0.549658 90.777300 -0.534734 13.795200 15.735700 0.000005 -0.000001 101.319000 79.759800 -102.820000 8.984550 -0.406207 -0.000000 12.390900 3.922160 -3.429730 16.377300 -0.000001 -0.000001 -2.204400 -9.261330 4.301790 6.456720 -0.000001 -0.000000 -0.899295 -15.322800 12.081500 12.994200 -0.242716 4.980390 -93.119700 7.223160 -66.562800 5.348090 -0.000007 -0.000001 -73.436100 12.471300 8.711030 24.328600 0.000019 0.000005 -0.519086 -1.358700 -20.862900 22.291600 -0.000001 0.000005 17.806000 5.103180 5.027190 12.994500 -0.242716 -4.980390 88.770100 7.117460 -80.170100 -5.348130 -0.000001 -0.000004 -65.716200 27.438000 -1.107100 -24.328900 0.000322 -0.000009 -5.608340 -9.710080 -30.198700 -22.291500 -0.000108 -0.000004 20.406300 5.419530 -3.583340 -2.192480 -6.469440 -0.000000 -174.216000 -11.951100 -13.603800 39.081100 -0.000007 -0.000012 -0.496004 0.225769 65.527200 40.985400 -0.000006 -0.000013 2.450700 6.935390 -87.869000 11.754300 -0.000000 0.000003 -0.000350 -0.002958 -16.687200 -2.192510 6.469440 -0.000001 173.661000 13.702700 166.954000 -39.081100 -0.002282 -0.040193 0.102538 -0.043136 66.538100 -40.985400 0.000008 0.000006 7.259340 4.764070 -88.904900 -11.754300 -0.000006 -0.000006 -0.943887 -1.167030 -16.992200
0.000000 0.000000 0.000000 0.000000 0.000000 -0.000000 0.553415 82.978400 -0.094961 92.167000 -3.280720 12.564400 15.735700 0.000005 -0.000001 104.286000 80.935400 -104.283000 8.984550 -0.406207 -0.000000 9.824190 4.446260 -0.376908 16.377300 -0.000001 -0.000001 -1.196310 -8.807670 4.399660 6.456720 -0.000001 -0.000000 -0.865392 -14.658000 10.488300 12.994200 -0.242716 4.980390 -92.359000 5.097770 -65.123300 5.348090 -0.000007 -0.000001 -70.077500 3.594480 8.148920 24.328600 0.000019 0.000005 -0.100539 -0.243741 -22.438600 22.291600 -0.000001 0.000005 14.673400 5.125140 4.531140 12.994500 -0.242716 -4.980390 88.751900 6.540020 -79.170400 -5.348130 -0.000001 -0.000004 -64.597300 23.337000 -0.294528 -24.328900 0.000322 -0.000009 -4.340020 -8.286580 -27.764000 -22.291500 -0.000108 -0.000004 20.412900 5.381450 -2.345050 -2.192480 -6.469440 -0.000000 -176.920000 -14.133700 -10.926100 39.081100 -0.000007 -0.000012 -0.424204 0.256736 58.817900 40.985400 -0.000006 -0.000013 2.654550 5.381010 -85.216100 11.754300 -0.000000 0.000003 -0.000317 -0.002727 -16.679000 -2.192510 6.469440 -0.000001 171.468000 11.972100 168.136000 -39.081100 -0.002282 -0.040193 0.074683 -0.039949 60.802400 -40.985400 0.000008 0.000006 6.735340 7.182850 -85.922500 -11.754300 -0.000006 -0.000006 -0.723470 -0.889022 -17.151400
0.000000 0.000000 0.000000 0.000000 0.000000 -0.000000 1.904120 85.542400 0.315739 93.027600 -5.183190 10.945600 15.735700 0.000005 -0.000001 107.993000 82.434100 -106.207000 8.984550 -0.406207 -0.000000 6.572290 4.640950 3.302770 16.377300 -0.000001 -0.000001 1.045510 -8.370440 4.341850 6.456720 -0.000001 -0.000000 -0.351734 -13.387800 7.496010 12.994200 -0.242716 4.980390 -91.302700 2.808530 -65.106800 5.348090 -0.000007 -0.000001 -61.976500 -4.551690 3.461930 24.328600 0.000019 0.000005 -0.117713 -0.285917 -22.349600 22.291600 -0.000001 0.000005 14.947500 5.114570 4.776650 12.994500 -0.242716 -4.980390 88.873100 5.526750 -78.456100 -5.348130 -0.000001 -0.000004 -63.737600 19.367800 1.810600 -24.328900 0.000322 -0.000009 -5.036730 -9.931790 -27.063600 -22.291500 -0.000108 -0.000004 20.847300 5.395990 -2.808830 -2.192480 -6.469440 -0.000000 -179.213000 -15.276400 -8.195630 39.081100 -0.000007 -0.000012 -0.326564 0.270000 50.417100 40.985400 -0.000006 -0.000013 2.714960 4.142210 -81.499800 11.754300 -0.000000 0.000003 -0.000240 -0.002157 -16.658500 -2.192510 6.469440 -0.000001 170.063000 11.135400 169.812000 -39.081100 -0.002282 -0.040193 0.052725 -0.036858 53.323200 -40.985400 0.000008 0.000006 5.941480 9.171560 -81.966100 -11.754300 -0.000006 -0.000006 -0.462398 -0.569199 -17.436300
0.000000 0.000000 0.000000 0.000000 0.000000 -0.000000 2.759170 87.712400 0.665336 93.681000 -6.110650 9.578160 15.735700 0.000005 -0.000001 110.038000 83.763700 -106.762000 8.984550 -0.406207 -0.000000 3.849590 4.155880 6.406990 16.377300 -0.000001 -0.000001 3.226170 -7.935740 4.757760 6.456720 -0.000001 -0.000000 0.473133 -11.809300 4.638580 12.994200 -0.242716 4.980390 -90.125400 0.277582 -65.742100 5.348090 -0.000007 -0.000001 -51.264800 -15.363500 -3.645260 24.328600 0.000019 0.000005 -1.620910 -3.655630 -23.922700 22.291600 -0.000001 0.000005 14.253200 5.138190 4.221180 12.994500 -0.242716 -4.980390 88.912100 4.921840 -77.519800 -5.348130 -0.000001 -0.000004 -61.843700 17.810000 2.685060 -24.328900 0.000322 -0.000009 -6.173050 -12.501500 -26.545900 -22.291500 -0.000108 -0.000004 19.173100 5.402980 -3.031940 -2.192480 -6.469440 -0.000000 179.259000 -16.240000 -5.355630 39.081100 -0.000007 -0.000012 -0.198789 0.219869 42.118100 40.985400 -0.000006 -0.000013 2.931970 4.144150 -77.688700 11.754300 -0.000000 0.000003 -0.000159 -0.001528 -16.635500 -2.192510 6.469440 -0.000001 169.249000 10.656700 171.858000 -39.081100 -0.002282 -0.040193 0.038367 -0.033862 46.032900 -40.985400 0.000008 0.000006 5.092100 10.033200 -78.281600 -11.754300 -0.000006 -0.000006 -0.241206 -0.306175 -17.581400
